<svg xmlns="http://www.w3.org/2000/svg" width="1444" height="403" viewBox="0 0 1444 403" fill="none"><g clip-path="url(#clip0_4_2)"><path d="M201.5 400.5C311.405 400.5 400.5 311.405 400.5 201.5C400.5 91.5953 311.405 2.5 201.5 2.5C91.5953 2.5 2.5 91.5953 2.5 201.5C2.5 311.405 91.5953 400.5 201.5 400.5Z" fill="white" stroke="#74A6EB" stroke-width="5"></path><path fill-rule="evenodd" clip-rule="evenodd" d="M164.1 3.8C100.5 18.3 50.9 55.5 23.4 109.3C-11.5 177.5 -7.19997 249.5 35.5 314.2C78.6 379.5 164.5 415.4 238.7 399.2C320.6 381.3 377.4 326.3 397.5 245.4C407.4 205.4 404 165.2 387 124.6C374.3 94.1 348.2 60.7 321.2 40.3C277.4 7.2 213.7 -7.6 164.1 3.8ZM253.3 9.8C309.8 26.3 354.1 62.5 378.6 112.3C393.9 143.4 399.5 167.4 399.4 202C399.3 255.9 380.3 302.4 343 340.2C317.6 365.9 288.4 383 251.9 393.6C238.2 397.6 231.4 398.2 201.6 398.2C164.1 398.2 155.4 396.7 125.9 384.9C102.4 375.5 81.8 361.7 62.6 342.6C19.2 299 -0.299974 246.4 4.10003 184.3C9.10003 114.3 56 48.3 120.5 20.6C153.5 6.4 167.1 3.9 206.7 4.8C231.6 5.3 241.3 6.3 253.3 9.8ZM121.6 52.1C117.8 55.9 115.4 60.4 115.4 63.6C115.4 70.7 125.5 80.8 132.6 80.8C139.6 80.8 149.8 70.7 149.8 63.8C149.8 56.9 142.1 48.6 134.2 47.1C128.8 46.2 126.7 47 121.6 52.1ZM206.8 51.8C201.1 59 201.4 67.8 207.6 73.9C220.4 86.7 240.7 73.7 234.8 56.6C232.2 49.2 227.7 46.4 218.1 46.4C212.9 46.4 209.9 47.8 206.8 51.8ZM292.8 64.1C279.3 67.4 267.6 84.7 267.5 101.6C267.5 111 267.3 111.3 255.2 119.4C243.6 127.3 242.6 127.6 236.1 125.2C229.5 122.8 229.2 122.3 228 109.4C225.9 88.1 225 84.9 220.6 84.9C216.1 84.9 215.9 87.6 218.8 108.2C220.6 120.7 220.4 122.7 217.4 124.9C215.5 126.3 212.5 127.4 210.7 127.4C209 127.4 195.4 115.9 180.5 102C165.6 88 152.4 76.9 151.1 77.4C144.6 79.6 149.5 86.1 175.6 110.2L203.6 136L204.9 148.5L206.2 161L197.8 168.4L189.4 175.8L179.5 168.6C151.1 147.8 106.2 144.2 71.3 160C53.8 167.9 36.3 185.7 30.1 201.9C24.6 216.3 22.8 240.1 26 255.8C31 279.8 57.5 307 83.9 315.1C108.1 322.6 143.7 320.3 165.2 309.8C183.4 301 202.8 278.2 204.8 263.3L205.5 258.2L179.8 257.6L154.1 257L150.7 264.2C144.9 276.4 137.1 280.4 119 280.4C101.8 280.4 95.9 277.6 87.6 265.5C83 258.7 79.6 244.5 81.8 241C82.7 239.6 105 238.9 146.9 238.9H210.7V232.1C210.7 220.2 206.8 203.8 201.5 193.4L196.3 183.4L205.1 174.6C213.3 166.4 214.4 165.9 219.7 168C226.7 170.6 235 169.1 241.5 164C246.2 160.3 246.5 160.3 260.8 166.7L275.3 173.1V246.6V320.1H303H330.4V239V157.9H303.2C284.6 157.9 275.8 158.6 275.2 160.2C274.7 161.7 270.2 160.6 261.8 156.9L249.2 151.3V142.6C249.2 134.2 249.6 133.7 260.9 126.8C272.3 119.9 272.7 119.8 276.6 123.4C283.8 129.9 293.4 133.6 303.1 133.6C322.2 133.6 336.3 121.3 338 103.2C339.3 89.7 337.6 84.2 329.1 74.8C319.8 64.5 306.9 60.7 292.8 64.1ZM318.1 71.7C338.7 82.3 338.7 115.9 318.1 126.5C303.6 134 284.8 128.5 276.5 114.4C271.8 106.4 271.2 103.5 272.3 95.6C273.9 84.3 277.7 77.9 286.3 72.7C294.2 67.9 309.8 67.4 318.1 71.7ZM236.2 136.5C238.9 139.2 241.2 143.5 241.2 146C241.2 152.5 233.5 159.9 226.7 159.9C213.7 159.9 208.1 143.7 218.2 135.7C225.1 130.3 230.1 130.5 236.2 136.5ZM130.6 184.5C135.1 185.7 141.5 188.8 144.9 191.4C151.1 196 159.7 211.6 157.4 213.9C155.9 215.4 85 215.4 83.5 213.9C81.5 211.9 85 202.8 90.2 196.5C96.5 189.1 101.6 186 111.3 184.1C121.7 182.1 121.8 182.1 130.6 184.5Z" fill="#74A6EB"></path><path d="M273.35 106.43L238.207 128.504L244.909 139.174L280.052 117.1L273.35 106.43Z" fill="black"></path><path d="M303.5 137C323.658 137 340 120.658 340 100.5C340 80.3416 323.658 64 303.5 64C283.342 64 267 80.3416 267 100.5C267 120.658 283.342 137 303.5 137Z" fill="#74A6EB" stroke="#004AAD" stroke-width="6"></path><path d="M495.3 176V66.5H519.3V176H495.3ZM516.3 176V155.6H564.2V176H516.3ZM516.3 130.6V110.2H560.7V130.6H516.3ZM516.3 86.9V66.5H563.1V86.9H516.3ZM573.4 176L610.7 117.7L611 120.2L576.5 66.5H603.5L624.8 100.7H628.3L649.3 66.5H675.5L640.9 120.5L640.4 118.1L679 176H651.8L627 137.3H623.4L599.7 176H573.4ZM714.2 144.7V123.4H733.9C737.7 123.4 740.9 122.6 743.7 121.2C746.5 119.7 748.7 117.6 750.2 114.9C751.7 112.1 752.4 108.9 752.4 105.3C752.4 101.5 751.6 98.3 750.2 95.5C748.7 92.7 746.5 90.6 743.7 89.2C741 87.7 737.7 87 733.9 87H714.2V65.6H732.7C742 65.6 749.9 67.2 756.5 70.3C763.2 73.4 768.3 77.8 771.8 83.5C775.4 89.2 777.2 96.1 777.2 104.1V106.5C777.2 114.3 775.4 121.1 771.8 126.9C768.3 132.6 763.2 137 756.5 140.1C749.9 143.2 742 144.7 732.7 144.7H714.2ZM692.6 176V65.6H717.2V176H692.6ZM792.7 176V66.5H816.7V176H792.7ZM813.7 176V155.6H861.5V176H813.7ZM813.7 130.6V110.2H858.1V130.6H813.7ZM813.7 86.9V66.5H860.5V86.9H813.7ZM881.7 176V65.6H906.3V176H881.7ZM948.2 176L916.1 128.9H943.1L976.7 176H948.2ZM899.7 140.9V121.6H926.7C930.3 121.6 933.4 120.9 936 119.5C938.7 118 940.8 116 942.2 113.4C943.7 110.7 944.4 107.6 944.4 104.1C944.4 100.6 943.6 97.5 942.2 94.9C940.8 92.2 938.7 90.1 936 88.7C933.4 87.2 930.3 86.5 926.7 86.5H899.7V65.6H924.7C933.8 65.6 941.7 67 948.4 69.8C955.1 72.5 960.2 76.6 963.9 81.9C967.5 87.3 969.3 94.1 969.3 102.3V104.7C969.3 112.8 967.5 119.5 963.8 124.9C960.2 130.2 955 134.2 948.3 136.9C941.7 139.5 933.8 140.8 924.8 140.8H899.7V140.9ZM1010.1 176V85H1034.7V176H1010.1ZM979.4 88V66.5H1065.7V88H979.4ZM495.6 330V220.5H520.2V330H495.6ZM545.1 330V220.5H585.5L626.7 310.1H631.8L628.8 312.8V220.5H651.9V330H611.2L570 240.5H564.9L567.9 237.8V330H545.1ZM698.3 330V239H722.9V330H698.3ZM667.5 242V220.6H753.7V242H667.5ZM769.2 330V220.5H793.2V330H769.2ZM790.2 330V309.6H838V330H790.2ZM790.2 284.6V264.2H834.6V284.6H790.2ZM790.2 240.9V220.5H837V240.9H790.2ZM909.2 332.9C899.4 332.9 890.8 331.3 883.5 328.1C876.2 324.8 870.2 320.4 865.3 314.9C860.6 309.4 857.1 303.3 854.8 296.6C852.5 289.9 851.4 283.2 851.4 276.5V273.2C851.4 266.3 852.5 259.6 854.8 252.9C857.1 246.3 860.6 240.3 865.2 234.9C869.9 229.5 875.7 225.2 882.6 222C889.6 218.8 897.7 217.2 906.8 217.2C916.7 217.2 925.5 219.1 933 222.8C940.6 226.4 946.7 231.4 951.3 237.9C955.9 244.3 958.5 251.8 959.3 260.3H934.7C934.1 256.3 932.5 252.8 929.9 249.8C927.4 246.8 924.1 244.4 920.1 242.7C916.2 241 911.8 240.1 906.8 240.1C902 240.1 897.7 241 893.9 242.7C890.2 244.4 887 246.8 884.3 249.9C881.7 253 879.7 256.7 878.3 261C877 265.2 876.3 269.9 876.3 275C876.3 280.3 877 285.1 878.4 289.5C879.9 293.8 882 297.5 884.8 300.7C887.6 303.8 891 306.2 895.2 307.9C899.4 309.6 904 310.4 909.2 310.4C916 310.4 921.9 309 926.9 306.2C931.9 303.4 935.5 299.7 937.7 295.1L934.7 311.9V285.8H957.3V309.2C952.6 316.8 946.1 322.7 937.8 326.8C929.6 330.9 920.1 332.9 909.2 332.9ZM906 290.7V273H966.3V290.7H906ZM982.2 330V219.6H1006.8V330H982.2ZM1048.7 330L1016.6 282.9H1043.6L1077.2 330H1048.7ZM1000.2 294.9V275.5H1027.2C1030.8 275.5 1033.9 274.8 1036.5 273.4C1039.2 271.9 1041.3 269.8 1042.7 267.2C1044.2 264.5 1044.9 261.4 1044.9 257.9C1044.9 254.4 1044.1 251.3 1042.7 248.7C1041.3 246 1039.2 243.9 1036.5 242.5C1033.9 241 1030.8 240.3 1027.2 240.3H1000.2V219.5H1025.2C1034.3 219.5 1042.2 220.9 1048.9 223.7C1055.6 226.4 1060.8 230.5 1064.4 235.8C1068 241.2 1069.8 248 1069.8 256.2V258.6C1069.8 266.7 1067.9 273.5 1064.2 278.8C1060.6 284.1 1055.4 288.1 1048.8 290.8C1042.2 293.4 1034.3 294.7 1025.2 294.7H1000.2V294.9ZM1081.4 330L1117.5 220.5H1157.3L1194.8 330H1169.3L1139 237.4L1146.8 240.6H1127.5L1135.6 237.4L1106 330H1081.4ZM1108.9 302.9L1116.4 282.5H1159.3L1167 302.9H1108.9ZM1230.7 330.6V307.6H1251.1C1256.2 307.6 1260.8 306.8 1264.9 305.4C1269 303.8 1272.5 301.6 1275.4 298.8C1278.3 295.9 1280.5 292.5 1282 288.5C1283.5 284.4 1284.2 279.9 1284.2 275C1284.2 269.9 1283.4 265.3 1282 261.3C1280.6 257.3 1278.3 253.9 1275.4 251.1C1272.5 248.3 1269 246.2 1264.9 244.8C1260.8 243.3 1256.2 242.6 1251.1 242.6H1230.7V219.7H1249.8C1259.7 219.7 1268.3 221.1 1275.7 224C1283.1 226.9 1289.3 230.9 1294.3 235.9C1299.3 240.9 1303 246.7 1305.4 253.1C1307.9 259.5 1309.2 266.3 1309.2 273.3V276.6C1309.2 283.2 1308 289.7 1305.4 296.2C1303 302.6 1299.3 308.4 1294.3 313.6C1289.3 318.7 1283.1 322.8 1275.7 325.9C1268.3 329 1259.7 330.5 1249.8 330.5H1230.7V330.6ZM1209.1 330.6V219.6H1233.7V330.6H1209.1ZM1378.8 332.9C1368.9 332.9 1360.2 331.2 1352.8 327.8C1345.5 324.3 1339.5 319.8 1334.6 314.2C1329.8 308.5 1326.2 302.3 1323.8 295.7C1321.5 289.1 1320.3 282.8 1320.3 276.7V273.4C1320.3 266.6 1321.5 259.9 1323.9 253.3C1326.4 246.6 1330.1 240.5 1335 235.2C1339.9 229.8 1346 225.5 1353.3 222.3C1360.6 219 1369.1 217.4 1378.7 217.4C1388.3 217.4 1396.7 219.1 1404 222.3C1411.3 225.5 1417.4 229.8 1422.3 235.2C1427.2 240.6 1430.9 246.6 1433.4 253.3C1435.9 259.9 1437.2 266.6 1437.2 273.4V276.7C1437.2 282.8 1436 289.1 1433.6 295.7C1431.2 302.3 1427.6 308.5 1422.8 314.2C1418 319.8 1411.9 324.3 1404.5 327.8C1397.3 331.2 1388.7 332.9 1378.8 332.9ZM1378.8 309.9C1384 309.9 1388.6 309 1392.7 307.2C1396.9 305.4 1400.5 302.9 1403.4 299.7C1406.4 296.5 1408.6 292.8 1410.2 288.6C1411.7 284.4 1412.4 279.9 1412.4 275.1C1412.4 270 1411.6 265.3 1410 261.1C1408.5 256.8 1406.2 253.1 1403.2 250C1400.3 246.8 1396.8 244.3 1392.7 242.6C1388.6 240.9 1383.9 240 1378.8 240C1373.6 240 1368.9 240.9 1364.8 242.6C1360.7 244.3 1357.1 246.8 1354.1 250C1351.2 253.1 1349 256.8 1347.5 261.1C1346 265.3 1345.3 270 1345.3 275.1C1345.3 279.9 1346.1 284.4 1347.5 288.6C1349 292.8 1351.2 296.5 1354.1 299.7C1357.1 302.9 1360.7 305.4 1364.8 307.2C1369 309 1373.6 309.9 1378.8 309.9Z" fill="white"></path><path d="M226.5 164.5C237.546 164.5 246.5 155.546 246.5 144.5C246.5 133.454 237.546 124.5 226.5 124.5C215.454 124.5 206.5 133.454 206.5 144.5C206.5 155.546 215.454 164.5 226.5 164.5Z" fill="white" stroke="black" stroke-width="13"></path><path d="M242.739 146.539L237.786 158.125L275.945 174.439L280.898 162.853L242.739 146.539Z" fill="white"></path><path d="M242.739 146.539L237.786 158.125L275.945 174.439L280.898 162.853L242.739 146.539Z" fill="black"></path><path d="M226.555 75.5899L213.974 76.2783L216.438 121.311L229.02 120.622L226.555 75.5899Z" fill="black"></path><path d="M207.537 159.261L188.701 176.151L197.113 185.532L215.949 168.641L207.537 159.261Z" fill="black"></path><path d="M153.562 71.5921L142.471 83.4003L202.387 139.674L213.477 127.866L153.562 71.5921Z" fill="black"></path><path d="M330 158H274V320H330V158Z" fill="#74A6EB"></path><path d="M220 76.5C228.008 76.5 234.5 70.0081 234.5 62C234.5 53.9919 228.008 47.5 220 47.5C211.992 47.5 205.5 53.9919 205.5 62C205.5 70.0081 211.992 76.5 220 76.5Z" fill="white" stroke="#04A9DD" stroke-width="5"></path><path d="M131.5 79.5C140.337 79.5 147.5 72.3366 147.5 63.5C147.5 54.6634 140.337 47.5 131.5 47.5C122.663 47.5 115.5 54.6634 115.5 63.5C115.5 72.3366 122.663 79.5 131.5 79.5Z" fill="white" stroke="#04A9DD" stroke-width="5"></path></g><defs><clipPath id="clip0_4_2"><rect width="1444" height="403" fill="white"></rect></clipPath></defs></svg>